<svg width="16" height="16" viewBox="0 0 16 16" fill="none" xmlns="http://www.w3.org/2000/svg">
<path id="Vector" d="M4.80444 16C4.36403 16 3.98715 15.8435 3.67379 15.5304C3.36044 15.2173 3.20349 14.8405 3.20296 14.4C3.20296 13.96 3.3599 13.5835 3.67379 13.2704C3.98768 12.9573 4.36457 12.8005 4.80444 12.8C5.24485 12.8 5.62199 12.9568 5.93588 13.2704C6.24977 13.584 6.40645 13.9605 6.40592 14.4C6.40592 14.84 6.24924 15.2168 5.93588 15.5304C5.62253 15.844 5.24538 16.0005 4.80444 16ZM12.8118 16C12.3714 16 11.9945 15.8435 11.6812 15.5304C11.3678 15.2173 11.2109 14.8405 11.2104 14.4C11.2104 13.96 11.3673 13.5835 11.6812 13.2704C11.9951 12.9573 12.372 12.8005 12.8118 12.8C13.2522 12.8 13.6294 12.9568 13.9433 13.2704C14.2572 13.584 14.4139 13.9605 14.4133 14.4C14.4133 14.84 14.2566 15.2168 13.9433 15.5304C13.6299 15.844 13.2528 16.0005 12.8118 16ZM3.36311 1.6H15.174C15.481 1.6 15.7145 1.7368 15.8747 2.0104C16.0348 2.284 16.0415 2.56053 15.8947 2.84L13.0521 7.96C12.9053 8.22667 12.7085 8.43333 12.4619 8.58C12.2153 8.72667 11.9449 8.8 11.6508 8.8H5.68525L4.80444 10.4H13.6126C13.8395 10.4 14.0298 10.4768 14.1835 10.6304C14.3372 10.784 14.4139 10.9739 14.4133 11.2C14.4133 11.4267 14.3364 11.6168 14.1827 11.7704C14.029 11.924 13.8389 12.0005 13.6126 12H4.80444C4.20388 12 3.75013 11.7368 3.44318 11.2104C3.13623 10.684 3.12289 10.1605 3.40314 9.64L4.48414 7.68L1.60148 1.6H0.80074C0.573864 1.6 0.383821 1.5232 0.230613 1.3696C0.0774048 1.216 0.000533827 1.02613 0 0.8C0 0.573333 0.076871 0.383467 0.230613 0.2304C0.384355 0.0773334 0.574397 0.000533333 0.80074 0H2.10194C2.24874 0 2.38887 0.0400001 2.52233 0.12C2.65579 0.2 2.75588 0.313333 2.82261 0.46L3.36311 1.6Z" fill="#4285F4"/>
</svg>
