<svg width="22" height="15" viewBox="0 0 22 15" fill="none" xmlns="http://www.w3.org/2000/svg">
<path d="M4.05853 15C3.48956 15 3.00232 14.7972 2.59681 14.3917C2.19129 13.9862 1.98887 13.4993 1.98956 12.931V3.62069C1.69646 3.62069 1.4506 3.52138 1.25198 3.32276C1.05336 3.12414 0.954392 2.87862 0.955082 2.58621C0.955082 2.29311 1.05439 2.04724 1.25301 1.84862C1.45163 1.65 1.69715 1.55104 1.98956 1.55173H5.09301V1.03449C5.09301 0.741383 5.19232 0.495521 5.39094 0.2969C5.58956 0.0982796 5.83508 -0.000686075 6.12749 3.57952e-06H8.19646C8.48956 3.57952e-06 8.73542 0.099314 8.93405 0.297935C9.13267 0.496555 9.23163 0.742072 9.23094 1.03449V1.55173H12.3344C12.6275 1.55173 12.8734 1.65104 13.072 1.84966C13.2706 2.04828 13.3696 2.2938 13.3689 2.58621C13.3689 2.87931 13.2696 3.12517 13.0709 3.3238C12.8723 3.52242 12.6268 3.62138 12.3344 3.62069V12.931C12.3344 13.5 12.1316 13.9872 11.7261 14.3928C11.3206 14.7983 10.8337 15.0007 10.2654 15H4.05853ZM15.4378 13.9655C15.1447 13.9655 14.8989 13.8662 14.7003 13.6676C14.5016 13.469 14.4027 13.2234 14.4034 12.931C14.4034 12.6379 14.5027 12.3921 14.7013 12.1934C14.8999 11.9948 15.1454 11.8959 15.4378 11.8966H17.5068C17.7999 11.8966 18.0458 11.9959 18.2444 12.1945C18.443 12.3931 18.542 12.6386 18.5413 12.931C18.5413 13.2241 18.442 13.47 18.2434 13.6686C18.0447 13.8672 17.7992 13.9662 17.5068 13.9655H15.4378ZM15.4378 9.82759C15.1447 9.82759 14.8989 9.72828 14.7003 9.52966C14.5016 9.33103 14.4027 9.08552 14.4034 8.7931C14.4034 8.5 14.5027 8.25414 14.7013 8.05552C14.8999 7.8569 15.1454 7.75793 15.4378 7.75862H19.5758C19.8689 7.75862 20.1147 7.85793 20.3134 8.05655C20.512 8.25517 20.6109 8.50069 20.6102 8.7931C20.6102 9.08621 20.5109 9.33207 20.3123 9.53069C20.1137 9.72931 19.8682 9.82828 19.5758 9.82759H15.4378ZM15.4378 5.68966C15.1447 5.68966 14.8989 5.59035 14.7003 5.39173C14.5016 5.1931 14.4027 4.94759 14.4034 4.65517C14.4034 4.36207 14.5027 4.11621 14.7013 3.91759C14.8999 3.71897 15.1454 3.62 15.4378 3.62069H20.6102C20.9034 3.62069 21.1492 3.72 21.3478 3.91862C21.5465 4.11724 21.6454 4.36276 21.6447 4.65517C21.6447 4.94828 21.5454 5.19414 21.3468 5.39276C21.1482 5.59138 20.9027 5.69035 20.6102 5.68966H15.4378Z" fill="#ADADAD"/>
</svg>
