<svg width="17" height="15" viewBox="0 0 17 15" fill="none" xmlns="http://www.w3.org/2000/svg">
<path d="M9.11627 0.924714C9.9346 0.335516 10.8839 0.0409165 11.9559 0.0409165C12.5451 0.0409165 13.1916 0.196399 13.8953 0.523732C14.5991 0.842881 15.1555 1.21931 15.5647 1.65303C16.4076 2.70049 16.7595 3.9198 16.6367 5.31097C16.5058 6.70213 16.0475 7.79051 15.2537 8.55974L9.04262 14.7709C8.88714 14.9264 8.69074 15 8.46161 15C8.23247 15 8.04426 14.9264 7.88877 14.7709C7.81319 14.6963 7.75383 14.6069 7.7144 14.5084C7.67497 14.4098 7.65633 14.3041 7.65964 14.198C7.65964 13.9689 7.73329 13.7725 7.88877 13.617L11.6449 9.86088C11.8495 9.68085 11.8495 9.49263 11.6449 9.28805C11.4403 9.08347 11.2521 9.08347 11.0721 9.28805L7.31594 13.0442C7.2402 13.1205 7.14946 13.1802 7.04946 13.2197C6.94945 13.2591 6.84235 13.2774 6.73493 13.2733C6.5058 13.2733 6.31758 13.1997 6.1621 13.0442C6.08652 12.9696 6.02715 12.8803 5.98772 12.7817C5.94829 12.6831 5.92965 12.5775 5.93296 12.4714C5.93296 12.2422 6.00661 12.0458 6.1621 11.8903L9.91823 8.13421C10.1392 7.92962 10.1392 7.72504 9.91823 7.52046C9.73002 7.31588 9.54998 7.31588 9.3454 7.52046L5.58926 11.3175C5.51267 11.3926 5.42178 11.4516 5.32198 11.491C5.22218 11.5303 5.1155 11.5493 5.00825 11.5466C4.77912 11.5466 4.58272 11.473 4.41087 11.3175C4.2472 11.162 4.16537 10.9738 4.16537 10.7447C4.16537 10.5155 4.25539 10.311 4.43542 10.1309L8.19974 6.36661C8.40432 6.16203 8.40432 5.97381 8.19974 5.79378C7.99516 5.61375 7.79876 5.61375 7.61872 5.79378L3.82167 9.56629C3.64164 9.72995 3.45342 9.81997 3.24884 9.81997C3.01971 9.81997 2.82331 9.73813 2.67601 9.56629C2.52053 9.40262 2.43869 9.20622 2.43869 8.97709C2.43869 8.74795 2.52053 8.55974 2.67601 8.40426C5.1801 5.8838 6.72674 4.3617 7.31594 3.79705L10.2292 6.67758C10.5483 6.98036 10.9166 7.13584 11.3667 7.13584C11.9395 7.13584 12.3896 6.90671 12.7251 6.44844C12.9542 6.11293 13.0361 5.74468 12.9706 5.33552C12.9051 4.92635 12.7333 4.58265 12.4551 4.29624L9.11627 0.924714ZM10.802 6.10475L7.31594 2.61047L1.52216 8.40426C0.834764 7.70867 0.441965 6.64484 0.351949 5.1964C0.261933 3.75614 0.654732 2.50409 1.52216 1.45663C2.49598 0.490999 3.658 0 5.00825 0C6.36668 0 7.52052 0.490999 8.46161 1.45663L11.9559 4.9509C12.1114 5.10638 12.185 5.2946 12.185 5.52373C12.185 5.75286 12.1114 5.94926 11.9559 6.10475C11.8004 6.25205 11.6122 6.33388 11.3667 6.33388C11.1457 6.33388 10.9575 6.25205 10.802 6.10475Z" fill="#ADADAD"/>
</svg>
