<svg width="16" height="15" viewBox="0 0 16 15" fill="none" xmlns="http://www.w3.org/2000/svg">
<path fill-rule="evenodd" clip-rule="evenodd" d="M8.6394 0.219592C8.49876 0.0789873 8.30802 0 8.10915 0C7.91027 0 7.71954 0.0789873 7.57889 0.219592L2.32884 5.46965L0.828822 6.96966C0.757189 7.03885 0.700051 7.12161 0.660744 7.21311C0.621437 7.30462 0.600747 7.40303 0.599882 7.50262C0.599016 7.6022 0.617993 7.70096 0.655704 7.79314C0.693415 7.88531 0.749105 7.96905 0.819526 8.03947C0.889946 8.10989 0.973686 8.16558 1.06586 8.20329C1.15803 8.241 1.25679 8.25998 1.35638 8.25912C1.45596 8.25825 1.55438 8.23756 1.64588 8.19825C1.73739 8.15895 1.82015 8.10181 1.88933 8.03018L2.10909 7.81042V12.75C2.10909 13.3467 2.34614 13.919 2.7681 14.341C3.19006 14.7629 3.76237 15 4.35911 15H11.8592C12.4559 15 13.0282 14.7629 13.4502 14.341C13.8722 13.919 14.1092 13.3467 14.1092 12.75V7.81042L14.329 8.03018C14.4704 8.16679 14.6599 8.24239 14.8565 8.24068C15.0532 8.23897 15.2413 8.1601 15.3803 8.02104C15.5194 7.88198 15.5983 7.69387 15.6 7.49722C15.6017 7.30057 15.5261 7.11112 15.3895 6.96966L8.6394 0.219592Z" fill="#ADADAD"/>
</svg>
