<svg width="14" height="17" viewBox="0 0 14 17" fill="none" xmlns="http://www.w3.org/2000/svg">
<path id="Vector" d="M0.964286 14.582C0.832429 14.582 0.722238 14.5373 0.633714 14.4479C0.544571 14.3592 0.5 14.2497 0.5 14.1197C0.5 13.9884 0.544571 13.8786 0.633714 13.7905C0.722238 13.7017 0.832429 13.6573 0.964286 13.6573H1.99964V6.33027C1.99964 5.12204 2.38345 4.0596 3.15107 3.14294C3.91993 2.22629 4.89338 1.65515 6.07143 1.42953V0.924667C6.07143 0.667609 6.1615 0.449388 6.34164 0.270003C6.52179 0.0900009 6.74062 0 6.99814 0C7.25505 0 7.4745 0.0900009 7.6565 0.270003C7.83788 0.449388 7.92857 0.667609 7.92857 0.924667V1.42953C9.10724 1.65515 10.0804 2.22629 10.848 3.14294C11.6156 4.06021 11.9994 5.12265 11.9994 6.33027V13.6564H13.0357C13.1676 13.6564 13.2778 13.7008 13.3663 13.7896C13.4548 13.8783 13.4994 13.9884 13.5 14.1197C13.5 14.251 13.4554 14.3607 13.3663 14.4488C13.2771 14.537 13.167 14.5811 13.0357 14.5811H0.964286V14.582ZM6.99721 17C6.58369 17 6.23083 16.8536 5.93864 16.5608C5.64645 16.2686 5.50036 15.9172 5.50036 15.5067H8.49964C8.49964 15.9197 8.35262 16.272 8.05857 16.5636C7.76391 16.8545 7.41012 17 6.99721 17Z" fill="#3E87E6"/>
</svg>
