<svg width="15" height="15" viewBox="0 0 15 15" fill="none" xmlns="http://www.w3.org/2000/svg">
<path d="M7.90001 7.94118C6.92942 7.94118 6.09854 7.59559 5.40736 6.90441C4.71619 6.21324 4.3706 5.38235 4.3706 4.41177V1.32353C4.3706 0.955884 4.49942 0.643237 4.75707 0.38559C5.01471 0.127943 5.32707 -0.000586225 5.69413 2.00992e-06C5.91471 2.00992e-06 6.12442 0.0514728 6.32324 0.154414C6.52207 0.257355 6.68001 0.404414 6.79707 0.59559C6.91471 0.404414 7.07266 0.257355 7.27089 0.154414C7.46913 0.0514728 7.67883 2.00992e-06 7.90001 2.00992e-06C8.1206 2.00992e-06 8.3303 0.0514728 8.52913 0.154414C8.72795 0.257355 8.88589 0.404414 9.00295 0.59559C9.1206 0.404414 9.27854 0.257355 9.47677 0.154414C9.67501 0.0514728 9.88471 2.00992e-06 10.1059 2.00992e-06C10.4735 2.00992e-06 10.7862 0.128826 11.0438 0.386473C11.3015 0.64412 11.43 0.956472 11.4294 1.32353V4.41177C11.4294 5.38235 11.0838 6.21324 10.3927 6.90441C9.70148 7.59559 8.8706 7.94118 7.90001 7.94118ZM0.841187 15V12.5294C0.841187 12.0294 0.97001 11.5697 1.22766 11.1503C1.4853 10.7309 1.82707 10.4112 2.25295 10.1912C3.16472 9.73529 4.09119 9.39324 5.03236 9.165C5.97354 8.93677 6.92942 8.82294 7.90001 8.82353C8.8706 8.82353 9.82648 8.93765 10.7677 9.16588C11.7088 9.39412 12.6353 9.73588 13.5471 10.1912C13.9735 10.4118 14.3156 10.7318 14.5732 11.1512C14.8309 11.5706 14.9594 12.03 14.9588 12.5294V15H0.841187Z" fill="#ADADAD"/>
</svg>
