<svg width="16" height="15" viewBox="0 0 16 15" fill="none" xmlns="http://www.w3.org/2000/svg">
<path d="M9.32951 8.8001L10.3816 6.98146C10.4492 6.86874 10.4192 6.72595 10.3215 6.64329L9.20927 5.77154C9.23181 5.60621 9.24684 5.43337 9.24684 5.26052C9.24684 5.08768 9.23181 4.91483 9.20927 4.74198L10.3215 3.87024C10.4192 3.78758 10.4492 3.64479 10.3816 3.53206L9.32951 1.71343C9.26187 1.6007 9.1266 1.55561 9.00636 1.6007L7.69875 2.12675C7.42821 1.91633 7.13512 1.74349 6.81197 1.60822L6.61658 0.217936C6.60397 0.157156 6.57107 0.102472 6.52327 0.0628674C6.47547 0.0232629 6.41562 0.00109318 6.35356 0H4.24935C4.12159 0 4.00887 0.0976954 3.98632 0.225451L3.79093 1.61573C3.4753 1.751 3.1747 1.92385 2.90416 2.13427L1.59654 1.60822C1.4763 1.56313 1.34103 1.60822 1.2734 1.72094L0.221291 3.53958C0.153656 3.6523 0.183716 3.79509 0.281412 3.87776L1.39364 4.7495C1.37109 4.91483 1.35606 5.08768 1.35606 5.26052C1.35606 5.43337 1.37109 5.60621 1.39364 5.77906L0.281412 6.6508C0.183716 6.73347 0.153656 6.87625 0.221291 6.98898L1.2734 8.80762C1.34103 8.92034 1.4763 8.96543 1.59654 8.92034L2.90416 8.39429C3.1747 8.60471 3.46778 8.77756 3.79093 8.91283L3.98632 10.3031C4.00887 10.4233 4.12159 10.521 4.24935 10.521H6.35356C6.48131 10.521 6.59404 10.4233 6.61658 10.2956L6.81197 8.90531C7.1276 8.77004 7.42821 8.59719 7.69875 8.38677L9.00636 8.91283C9.1266 8.95792 9.26187 8.91283 9.32951 8.8001ZM5.30145 6.76353C4.4748 6.76353 3.79845 6.08717 3.79845 5.26052C3.79845 4.43387 4.4748 3.75752 5.30145 3.75752C6.12811 3.75752 6.80446 4.43387 6.80446 5.26052C6.80446 6.08717 6.12811 6.76353 5.30145 6.76353ZM15.1537 12.5276L14.4322 11.9714C14.4472 11.8662 14.4623 11.7535 14.4623 11.6408C14.4623 11.5281 14.4548 11.4153 14.4322 11.3101L15.1461 10.754C15.2063 10.7014 15.2288 10.6112 15.1837 10.5361L14.5074 9.37124C14.4698 9.29609 14.3796 9.27355 14.2969 9.29609L13.4628 9.63427C13.2899 9.499 13.1021 9.38627 12.8916 9.30361L12.7639 8.41683C12.7609 8.37667 12.7431 8.33904 12.7139 8.31126C12.6848 8.28349 12.6463 8.26754 12.6061 8.26653H11.2609C11.1782 8.26653 11.1031 8.32665 11.0955 8.40932L10.9678 9.29609C10.7649 9.38627 10.5695 9.49148 10.3966 9.62675L9.56248 9.28858C9.52418 9.27417 9.48202 9.27382 9.44349 9.28758C9.40496 9.30134 9.37256 9.32832 9.35205 9.36373L8.6757 10.5286C8.63813 10.6037 8.64564 10.6939 8.71328 10.7465L9.42721 11.3026C9.39621 11.522 9.39621 11.7446 9.42721 11.9639L8.71328 12.52C8.65316 12.5726 8.63061 12.6628 8.6757 12.738L9.35205 13.9028C9.38963 13.978 9.47981 14.0005 9.56248 13.978L10.3966 13.6398C10.5695 13.7751 10.7574 13.8878 10.9678 13.9704L11.0955 14.8572C11.1106 14.9399 11.1782 15 11.2609 15H12.6061C12.6887 15 12.7639 14.9399 12.7714 14.8572L12.8991 13.9704C13.1021 13.8803 13.2974 13.7751 13.4628 13.6398L14.3045 13.978C14.3796 14.008 14.4698 13.978 14.5149 13.9028L15.1912 12.738C15.2363 12.6703 15.2138 12.5802 15.1537 12.5276ZM11.9297 12.6478C11.6605 12.6477 11.4024 12.5407 11.2122 12.3503C11.0219 12.1599 10.9151 11.9017 10.9152 11.6325C10.9153 11.3633 11.0223 11.1052 11.2127 10.915C11.4031 10.7247 11.6613 10.6179 11.9305 10.618C12.1996 10.6181 12.4577 10.7251 12.648 10.9155C12.8383 11.1059 12.9451 11.3641 12.945 11.6333C12.9449 11.9024 12.8379 12.1605 12.6475 12.3508C12.4571 12.5411 12.1989 12.6479 11.9297 12.6478Z" fill="#ADADAD"/>
</svg>
